name C:\Users\tom_v\MusculoskeletalSpecialization_revisited\Results\Case_12\motion.mot
datacolumns 32
datarows 17
range 0.00000000 0.06474449
endheader 
time	pelvis_tilt	pelvis_list	pelvis_rotation	pelvis_tx	pelvis_ty	pelvis_tz	hip_flexion_r	hip_adduction_r	hip_rotation_r	knee_angle_r	ankle_angle_r	subtalar_angle_r	mtp_angle_r	hip_flexion_l	hip_adduction_l	hip_rotation_l	knee_angle_l	ankle_angle_l	subtalar_angle_l	mtp_angle_l	lumbar_extension	lumbar_bending	lumbar_rotation	arm_flex_r	arm_add_r	arm_rot_r	elbow_flex_r	arm_flex_l	arm_add_l	arm_rot_l	elbow_flex_l	
          0.00000000	         -6.41415642	         -4.30556619	         11.41948337	          0.00000000	          0.95364179	         -0.01844928	         26.75447043	          5.90862262	         -9.99794708	         -3.49219597	          0.18877755	        -28.52841457	         -1.23662824	         14.45667905	         -6.14513970	         -1.25805082	        -61.48708290	         -9.08289489	          3.20157618	          1.20412863	        -12.27049709	          8.30705254	        -10.37133630	        -15.38582681	        -13.97856557	        -12.17441508	         29.43834404	          8.78549867	        -18.03478112	         -0.76941589	         30.16893012	
          0.00404653	         -6.92145912	         -3.68375768	          9.83755208	          0.03981942	          0.95154234	         -0.01860623	         25.09906456	          6.03997712	         -9.80733552	         -2.79351863	         -2.44169429	        -27.63600623	          1.16881445	         16.15526137	         -5.35551756	         -2.16864512	        -62.31255226	         -7.15196083	          4.21672672	         -1.33910692	        -11.50178966	          7.63191101	        -10.11548659	         -7.61724545	        -16.15138311	        -11.49226115	         21.16708934	          8.92156657	        -15.87647640	          6.68989215	         16.59175556	
          0.00809306	         -7.52806924	         -2.93696485	          8.16902204	          0.07961410	          0.94850308	         -0.01880992	         23.57824763	          5.95048517	         -9.19010268	         -2.30906179	         -5.07131120	        -27.79595119	          3.12251851	         18.05719445	         -4.49209353	         -3.16045875	        -63.20832486	         -6.30515891	          4.60150759	         -4.08695459	        -10.64642052	          6.85803811	         -9.87242663	         -0.57299766	        -18.16838476	        -11.52159616	         15.34803442	          7.46491297	        -13.15198505	         13.80182665	          6.43482910	
          0.01213959	         -8.16414827	         -2.08708170	          6.43548383	          0.11948472	          0.94476051	         -0.01901065	         22.10164142	          5.68660927	         -8.49853191	         -2.05118983	         -9.70017088	        -29.16413809	          4.99236754	         20.06732592	         -3.63187964	         -4.22219522	        -64.13425853	         -6.16052433	          4.97636202	         -1.18339979	         -9.77423363	          6.03601381	         -9.60368672	          5.33072984	        -20.08629253	        -12.33847180	         13.05703707	          4.12244918	        -10.39837675	         18.29336879	          0.94054718	
          0.01618612	         -8.75302162	         -1.22440016	          4.59746574	          0.15940564	          0.94065356	         -0.01898532	         20.69768590	          5.38882466	         -7.49204190	         -2.75906435	        -11.62019998	        -28.81880039	          5.43224239	         22.08261245	         -2.94294556	         -5.38515705	        -65.08658815	         -4.67543098	          6.04363348	          1.14459011	         -8.97329570	          5.26561815	         -9.20137110	          9.85844703	        -21.94675350	        -13.13928391	         14.76519416	         -0.79920369	         -8.16146648	         19.35028049	          0.35785267	
          0.02023265	         -9.20769861	         -0.80957346	          2.53649559	          0.19909703	          0.93687597	         -0.01815720	         19.32375728	          5.75724421	         -3.90103189	         -4.54382359	         -6.83391665	        -29.59215650	          7.45200960	         24.09332949	         -3.06390782	         -6.66560843	        -66.13673817	         -2.98058077	          7.23582139	          2.97042428	         -8.38737576	          5.02154301	         -8.44636461	         13.00610734	        -23.84322337	        -12.99107170	         20.44451792	         -7.05522251	         -6.49030742	         16.46053060	          4.70190453	
          0.02427918	         -9.41909786	         -0.84462776	          0.34274068	          0.23847368	          0.93385011	         -0.01652955	         17.58462957	          6.88831556	          1.15458173	         -5.78868535	         -4.81716950	        -34.19039981	          9.32557381	         25.94730554	         -3.92776008	         -7.87737434	        -67.24388975	         -1.85060950	          8.04461201	          4.32955459	         -8.20064004	          5.25916791	         -7.42039070	         15.00348818	        -25.98213791	        -11.34540632	         29.43663869	        -14.62301730	         -4.92163271	          9.97624743	         13.48290091	
          0.02832571	         -9.40292456	         -0.89740206	         -1.81879459	          0.27752212	          0.93141355	         -0.01468345	         15.46620474	          7.91787009	          5.93021251	         -6.81350772	         -3.51344685	        -38.58565340	         10.92604701	         27.59065965	         -4.83365224	         -8.86535090	        -68.26640125	         -1.02041814	          8.36296787	          5.11853433	         -8.38107633	          5.45422616	         -6.30418184	         16.45597552	        -28.57426729	         -8.56034187	         40.14312667	        -22.96914343	         -2.84590591	          3.00829966	         24.56364639	
          0.03237224	         -9.28697995	         -0.84266297	         -3.88409000	          0.31615279	          0.92941518	         -0.01298006	         13.27164391	          8.32159497	          8.62455922	         -7.96907044	         -0.87618844	        -38.62746102	         12.72627828	         29.17466643	         -5.51765175	         -9.55272123	        -69.15498664	         -0.05457883	          8.44851738	          5.54259129	         -8.73021908	          5.46578424	         -5.10981997	         17.88789277	        -31.51279472	         -5.88938287	         51.25025956	        -31.17809662	         -0.36772667	         -1.73107093	         35.50602121	
          0.03641877	         -9.22434696	         -0.72987883	         -5.83603823	          0.35436157	          0.92777038	         -0.01141280	         11.28101776	          8.23588590	          9.58044678	         -9.30246841	          2.41061454	        -35.60587794	         14.89547995	         30.88253946	         -6.03155815	         -9.91419037	        -69.90240024	          1.10030734	          8.62377465	          5.84713383	         -9.03501361	          5.37105119	         -3.81914013	         19.56389542	        -34.47991337	         -4.06339082	         61.94956471	        -38.70188382	          1.91062006	         -3.55793510	         44.80679968	
          0.04046530	         -9.25060308	         -0.41151706	         -7.61453852	          0.39233739	          0.92629718	         -0.01001280	          9.47444375	          7.73471173	          9.92724376	        -10.60752462	          5.19657748	        -32.36293328	         17.19330288	         32.73955317	         -6.21258774	         -9.99999906	        -70.44289246	          2.27989147	          8.99482526	          6.10719218	         -9.18629482	          5.02807263	         -2.53944101	         21.57464487	        -37.19589386	         -3.10166074	         71.80782189	        -45.46412117	          3.56847052	         -3.13091801	         52.03136891	
          0.04451183	         -9.35286032	          0.19225311	         -9.20055173	          0.43023242	          0.92489509	         -0.00878311	          7.82485083	          6.81779010	          9.99998750	        -11.80029182	          7.12703674	        -29.69736582	         19.66037777	         34.71894514	         -6.00394409	         -9.91023979	        -70.73942710	          3.41434856	          9.56490453	          6.30310128	         -9.14834213	          4.36106875	         -1.32948303	         23.88510617	        -39.45015224	         -2.98902922	         80.67200701	        -51.46631799	          4.55660670	         -1.40102884	         57.13192074	
          0.04855836	         -9.51483203	          1.03610098	        -10.62052126	          0.46812214	          0.92359455	         -0.00763695	          6.35557261	          5.56633092	          9.77129051	        -12.93520716	          8.20160965	        -27.58903256	         22.35279624	         36.78289898	         -5.51936505	         -9.74704111	        -70.79497167	          4.53593683	         10.28527028	          6.43884419	         -8.93118440	          3.42099476	         -0.16924087	         26.37549740	        -41.09085973	         -3.78992115	         88.53326243	        -56.65902103	          4.96961589	          0.98672581	         60.10098746	
          0.05260489	         -9.73787712	          2.06126850	        -11.91626414	          0.50602165	          0.92242007	         -0.00648253	          5.12680049	          4.07915352	          9.30877763	        -14.12150681	          8.39587093	        -26.06819529	         25.31027599	         38.91167279	         -4.88859022	         -9.59579057	        -70.62697127	          5.68112910	         11.03473461	          6.49905571	         -8.54028094	          2.27395626	          0.96777073	         29.00314728	        -42.11740564	         -5.26080480	         95.36432517	        -60.97328388	          4.95834123	          3.62788781	         60.90420797	
          0.05665142	        -10.02555132	          3.24050255	        -13.11997925	          0.54392372	          0.92136563	         -0.00526784	          4.19620446	          2.40383389	          8.58532811	        -15.44905292	          7.72975137	        -25.05247222	         28.56789009	         41.09351800	         -4.18948119	         -9.51826932	        -70.25293096	          6.97515977	         11.64377767	          5.22369971	         -7.97496773	          0.95308580	          2.09083065	         31.74493332	        -42.57668375	         -7.10706410	        101.14901268	        -64.35757148	          4.69798529	          6.25123918	         59.52726437	
          0.06069796	        -10.35250749	          4.56116426	        -14.25077143	          0.58181790	          0.92043375	         -0.00396478	          3.56897122	          0.56447806	          7.66989639	        -16.96372274	          6.19434183	        -24.59170455	         32.12804467	         43.29733984	         -3.46273034	         -9.56306238	        -69.69044280	          8.09648888	         11.68543071	          3.50695671	         -7.26214360	         -0.53283650	          3.20257820	         34.54837347	        -42.54096650	         -9.08906736	        105.89792900	        -66.85765682	          4.32279911	          8.71337034	         56.22031940	
          0.06474449	        -10.63672542	          5.95637239	        -15.32624850	          0.61971452	          0.91971349	         -0.00257600	          3.14939596	         -1.37781836	          6.66115686	        -18.67374139	          3.59747041	        -24.87426163	         36.25689546	         45.42615141	         -2.76656639	         -9.72856416	        -68.97619427	          8.93444991	         11.00036716	          3.16547653	         -6.50946182	         -2.12556936	          4.32060230	         37.35571572	        -42.21584646	        -10.94210616	        109.64037106	        -68.55207162	          3.84536444	         11.22304559	         51.39668126	
